<svg width="32" height="32" viewBox="0 0 32 32" fill="none" xmlns="http://www.w3.org/2000/svg">
<path d="M17.6667 27.6239C15.8611 27.6239 14.1901 27.1785 12.6536 26.2877C11.1172 25.3968 9.9019 24.186 9.0078 22.6552C8.11371 21.1244 7.66666 19.4595 7.66666 17.6605C7.66666 15.827 8.3177 14.2616 9.61978 12.9643C10.9219 11.6669 12.493 11.0183 14.3333 11.0183C14.9236 11.0183 15.6007 11.1826 16.3646 11.5113C17.1285 11.8399 17.8142 12.3372 18.4219 13.0032C19.0295 13.6691 19.3333 14.3913 19.3333 15.1697C19.3333 16.1902 19.2378 16.9167 19.0469 17.3492C19.6198 17.0897 20.0885 16.6875 20.4531 16.1427C20.8177 15.5978 21 14.9967 21 14.3394C21 12.5059 20.3489 10.9404 19.0469 9.64313C17.7448 8.34582 16.1736 7.69716 14.3333 7.69716C12.8229 7.69716 11.4297 8.06906 10.1536 8.81285C8.87759 9.55664 7.86631 10.5642 7.11978 11.8356C6.37325 13.107 5.99999 14.4951 5.99999 16C5.99999 18.1622 6.32551 20.1341 6.97655 21.9157C7.62759 23.6974 8.41318 25.0466 9.33332 25.9633C6.92013 25.1677 5.20572 23.9655 4.19009 22.3568C3.17447 20.7481 2.66666 18.6292 2.66666 16C2.66666 14.4259 2.97482 12.921 3.59114 11.4853C4.20746 10.0496 5.03645 8.81285 6.07811 7.775C7.11978 6.73715 8.3611 5.91119 9.80207 5.29713C11.243 4.68307 12.7535 4.37604 14.3333 4.37604C16.1389 4.37604 17.8099 4.82145 19.3463 5.71227C20.8828 6.60309 22.0981 7.81392 22.9922 9.34475C23.8863 10.8756 24.3333 12.5405 24.3333 14.3394C24.3333 16.1729 23.6823 17.7384 22.3802 19.0357C21.0781 20.333 19.5069 20.9817 17.6667 20.9817C17.0764 20.9817 16.3993 20.8173 15.6354 20.4887C14.8715 20.16 14.1858 19.6627 13.5781 18.9968C12.9705 18.3308 12.6667 17.6086 12.6667 16.8302C12.6667 15.8097 12.7621 15.0832 12.9531 14.6508C12.3802 14.9102 11.9114 15.3124 11.5469 15.8573C11.1823 16.4021 11 17.0032 11 17.6605C11 19.4941 11.651 21.0595 12.9531 22.3568C14.2552 23.6541 15.8264 24.3028 17.6667 24.3028C19.1771 24.3028 20.5703 23.9309 21.8463 23.1871C23.1224 22.4433 24.1337 21.4357 24.8802 20.1643C25.6267 18.893 26 17.5049 26 16C26 13.8551 25.6745 11.8875 25.0234 10.0972C24.3724 8.3069 23.5868 6.95337 22.6667 6.0366C25.0799 6.83229 26.7943 8.03446 27.8099 9.64313C28.8255 11.2518 29.3333 13.3707 29.3333 16C29.3333 17.574 29.0252 19.0789 28.4088 20.5146C27.7925 21.9503 26.9635 23.1871 25.9219 24.2249C24.8802 25.2628 23.6389 26.0887 22.1979 26.7028C20.7569 27.3169 19.2465 27.6239 17.6667 27.6239Z" fill="white"/>
</svg>
