<svg width="32" height="32" viewBox="0 0 32 32" fill="none" xmlns="http://www.w3.org/2000/svg">
<path d="M20.2816 21.0096C26.5087 15.4261 31.3334 8.09068 28.5043 4.87328C27.6069 3.85337 26.3539 3.38042 25.0086 3.52573C23.8791 3.65048 22.7184 4.2139 21.5482 5.15979C19.7086 4.19745 17.6554 3.72766 15.5847 3.79534C13.5141 3.86303 11.4952 4.46591 9.72115 5.54637C8.34203 6.37091 7.13878 7.46379 6.18121 8.76161C5.22365 10.0594 4.53083 11.5363 4.14296 13.1066C3.53844 15.5255 3.68343 18.0734 4.55837 20.4065C3.11258 22.0556 1.76996 25.4471 3.44111 27.3471C4.14296 28.1436 5.14755 28.5 6.35577 28.5C10.0307 28.5 15.598 25.2113 20.2816 21.0096ZM25.3032 6.24962C25.7892 6.20301 26.1611 6.33736 26.472 6.69241C26.7856 7.0502 26.7014 7.98924 26.1299 9.33679C25.5159 8.39323 24.7774 7.53863 23.9347 6.7966C24.5198 6.43743 24.9882 6.28527 25.3032 6.24962ZM5.9838 23.1153C6.58745 23.9994 7.30308 24.7999 8.11245 25.4965C6.72096 25.9118 5.7856 25.8844 5.47201 25.5252C5.17742 25.1921 5.47472 24.0598 5.9838 23.1153ZM28.1255 15.0697C26.4761 17.5331 24.1805 20.1021 21.6391 22.3805C19.0136 24.737 16.1193 26.7782 13.4259 28.1408C14.2616 28.3266 15.1143 28.424 15.97 28.4315C18.1778 28.4291 20.3436 27.8217 22.2364 26.674C24.2028 25.4985 25.7994 23.7848 26.8416 21.7312C27.8838 19.6776 28.3289 17.3681 28.1255 15.0697Z" fill="white"/>
</svg>
